<?xml version="1.0" encoding="UTF-8" standalone="no"?>
<!DOCTYPE svg PUBLIC "-//W3C//DTD SVG 1.1//EN" "http://www.w3.org/Graphics/SVG/1.1/DTD/svg11.dtd">
<svg width="100%" height="100%" viewBox="0 0 640 1136" version="1.1" xmlns="http://www.w3.org/2000/svg" xmlns:xlink="http://www.w3.org/1999/xlink" xml:space="preserve" xmlns:serif="http://www.serif.com/" style="fill-rule:evenodd;clip-rule:evenodd;stroke-linejoin:round;stroke-miterlimit:2;">
    <rect id="ArtBoard1" x="0" y="0" width="640" height="1136" style="fill:none;"/>
    <clipPath id="_clip1">
        <rect id="ArtBoard11" serif:id="ArtBoard1" x="0" y="0" width="640" height="1136"/>
    </clipPath>
    <g clip-path="url(#_clip1)">
        <g transform="matrix(1,0,0,1,-131,395)">
            <text x="134px" y="700.149px" style="font-family:'FiraCode-Regular', 'Fira Code', monospace;font-size:20px;fill:rgb(58,47,90);">01001000 <tspan x="242.308px " y="700.149px ">0</tspan>1100101 <tspan x="350.615px " y="700.149px ">0</tspan>1101100 <tspan x="458.923px " y="700.149px ">0</tspan>1101100 <tspan x="567.231px " y="700.149px ">0</tspan>1101111 <tspan x="675.538px " y="700.149px ">0</tspan>0101100</text>
            <text x="134px" y="720.149px" style="font-family:'FiraCode-Regular', 'Fira Code', monospace;font-size:20px;fill:rgb(58,47,90);">00100000 <tspan x="242.308px " y="720.149px ">0</tspan>1010111 <tspan x="350.615px " y="720.149px ">0</tspan>1101111 <tspan x="458.923px " y="720.149px ">0</tspan>1110010 <tspan x="567.231px " y="720.149px ">0</tspan>1101100 <tspan x="675.538px " y="720.149px ">0</tspan>1100100</text>
            <text x="134px" y="740.149px" style="font-family:'FiraCode-Regular', 'Fira Code', monospace;font-size:20px;fill:rgb(58,47,90);">00100001</text>
        </g>
        <g transform="matrix(1,0,0,1,-131,334.737)">
            <text x="134px" y="700.149px" style="font-family:'FiraCode-Regular', 'Fira Code', monospace;font-size:20px;fill:rgb(58,47,90);">01001000 <tspan x="242.308px " y="700.149px ">0</tspan>1100101 <tspan x="350.615px " y="700.149px ">0</tspan>1101100 <tspan x="458.923px " y="700.149px ">0</tspan>1101100 <tspan x="567.231px " y="700.149px ">0</tspan>1101111 <tspan x="675.538px " y="700.149px ">0</tspan>0101100</text>
            <text x="134px" y="720.149px" style="font-family:'FiraCode-Regular', 'Fira Code', monospace;font-size:20px;fill:rgb(58,47,90);">00100000 <tspan x="242.308px " y="720.149px ">0</tspan>1010111 <tspan x="350.615px " y="720.149px ">0</tspan>1101111 <tspan x="458.923px " y="720.149px ">0</tspan>1110010 <tspan x="567.231px " y="720.149px ">0</tspan>1101100 <tspan x="675.538px " y="720.149px ">0</tspan>1100100</text>
            <text x="134px" y="740.149px" style="font-family:'FiraCode-Regular', 'Fira Code', monospace;font-size:20px;fill:rgb(58,47,90);">00100001</text>
        </g>
        <g transform="matrix(1,0,0,1,-131,274.474)">
            <text x="134px" y="700.149px" style="font-family:'FiraCode-Regular', 'Fira Code', monospace;font-size:20px;fill:rgb(58,47,90);">01001000 <tspan x="242.308px " y="700.149px ">0</tspan>1100101 <tspan x="350.615px " y="700.149px ">0</tspan>1101100 <tspan x="458.923px " y="700.149px ">0</tspan>1101100 <tspan x="567.231px " y="700.149px ">0</tspan>1101111 <tspan x="675.538px " y="700.149px ">0</tspan>0101100</text>
            <text x="134px" y="720.149px" style="font-family:'FiraCode-Regular', 'Fira Code', monospace;font-size:20px;fill:rgb(58,47,90);">00100000 <tspan x="242.308px " y="720.149px ">0</tspan>1010111 <tspan x="350.615px " y="720.149px ">0</tspan>1101111 <tspan x="458.923px " y="720.149px ">0</tspan>1110010 <tspan x="567.231px " y="720.149px ">0</tspan>1101100 <tspan x="675.538px " y="720.149px ">0</tspan>1100100</text>
            <text x="134px" y="740.149px" style="font-family:'FiraCode-Regular', 'Fira Code', monospace;font-size:20px;fill:rgb(58,47,90);">00100001</text>
        </g>
        <g transform="matrix(1,0,0,1,-131,214.211)">
            <text x="134px" y="700.149px" style="font-family:'FiraCode-Regular', 'Fira Code', monospace;font-size:20px;fill:rgb(58,47,90);">01001000 <tspan x="242.308px " y="700.149px ">0</tspan>1100101 <tspan x="350.615px " y="700.149px ">0</tspan>1101100 <tspan x="458.923px " y="700.149px ">0</tspan>1101100 <tspan x="567.231px " y="700.149px ">0</tspan>1101111 <tspan x="675.538px " y="700.149px ">0</tspan>0101100</text>
            <text x="134px" y="720.149px" style="font-family:'FiraCode-Regular', 'Fira Code', monospace;font-size:20px;fill:rgb(58,47,90);">00100000 <tspan x="242.308px " y="720.149px ">0</tspan>1010111 <tspan x="350.615px " y="720.149px ">0</tspan>1101111 <tspan x="458.923px " y="720.149px ">0</tspan>1110010 <tspan x="567.231px " y="720.149px ">0</tspan>1101100 <tspan x="675.538px " y="720.149px ">0</tspan>1100100</text>
            <text x="134px" y="740.149px" style="font-family:'FiraCode-Regular', 'Fira Code', monospace;font-size:20px;fill:rgb(58,47,90);">00100001</text>
        </g>
        <g transform="matrix(1,0,0,1,-131,153.947)">
            <text x="134px" y="700.149px" style="font-family:'FiraCode-Regular', 'Fira Code', monospace;font-size:20px;fill:rgb(58,47,90);">01001000 <tspan x="242.308px " y="700.149px ">0</tspan>1100101 <tspan x="350.615px " y="700.149px ">0</tspan>1101100 <tspan x="458.923px " y="700.149px ">0</tspan>1101100 <tspan x="567.231px " y="700.149px ">0</tspan>1101111 <tspan x="675.538px " y="700.149px ">0</tspan>0101100</text>
            <text x="134px" y="720.149px" style="font-family:'FiraCode-Regular', 'Fira Code', monospace;font-size:20px;fill:rgb(58,47,90);">00100000 <tspan x="242.308px " y="720.149px ">0</tspan>1010111 <tspan x="350.615px " y="720.149px ">0</tspan>1101111 <tspan x="458.923px " y="720.149px ">0</tspan>1110010 <tspan x="567.231px " y="720.149px ">0</tspan>1101100 <tspan x="675.538px " y="720.149px ">0</tspan>1100100</text>
            <text x="134px" y="740.149px" style="font-family:'FiraCode-Regular', 'Fira Code', monospace;font-size:20px;fill:rgb(58,47,90);">00100001</text>
        </g>
        <g transform="matrix(1,0,0,1,-131,-87.1053)">
            <text x="134px" y="700.149px" style="font-family:'FiraCode-Regular', 'Fira Code', monospace;font-size:20px;fill:rgb(58,47,90);">01001000 <tspan x="242.308px " y="700.149px ">0</tspan>1100101 <tspan x="350.615px " y="700.149px ">0</tspan>1101100 <tspan x="458.923px " y="700.149px ">0</tspan>1101100 <tspan x="567.231px " y="700.149px ">0</tspan>1101111 <tspan x="675.538px " y="700.149px ">0</tspan>0101100</text>
            <text x="134px" y="720.149px" style="font-family:'FiraCode-Regular', 'Fira Code', monospace;font-size:20px;fill:rgb(58,47,90);">00100000 <tspan x="242.308px " y="720.149px ">0</tspan>1010111 <tspan x="350.615px " y="720.149px ">0</tspan>1101111 <tspan x="458.923px " y="720.149px ">0</tspan>1110010 <tspan x="567.231px " y="720.149px ">0</tspan>1101100 <tspan x="675.538px " y="720.149px ">0</tspan>1100100</text>
            <text x="134px" y="740.149px" style="font-family:'FiraCode-Regular', 'Fira Code', monospace;font-size:20px;fill:rgb(58,47,90);">00100001</text>
        </g>
        <g transform="matrix(1,0,0,1,-131,-328.158)">
            <text x="134px" y="700.149px" style="font-family:'FiraCode-Regular', 'Fira Code', monospace;font-size:20px;fill:rgb(58,47,90);">01001000 <tspan x="242.308px " y="700.149px ">0</tspan>1100101 <tspan x="350.615px " y="700.149px ">0</tspan>1101100 <tspan x="458.923px " y="700.149px ">0</tspan>1101100 <tspan x="567.231px " y="700.149px ">0</tspan>1101111 <tspan x="675.538px " y="700.149px ">0</tspan>0101100</text>
            <text x="134px" y="720.149px" style="font-family:'FiraCode-Regular', 'Fira Code', monospace;font-size:20px;fill:rgb(58,47,90);">00100000 <tspan x="242.308px " y="720.149px ">0</tspan>1010111 <tspan x="350.615px " y="720.149px ">0</tspan>1101111 <tspan x="458.923px " y="720.149px ">0</tspan>1110010 <tspan x="567.231px " y="720.149px ">0</tspan>1101100 <tspan x="675.538px " y="720.149px ">0</tspan>1100100</text>
            <text x="134px" y="740.149px" style="font-family:'FiraCode-Regular', 'Fira Code', monospace;font-size:20px;fill:rgb(58,47,90);">00100001</text>
        </g>
        <g transform="matrix(1,0,0,1,-131,-569.211)">
            <text x="134px" y="700.149px" style="font-family:'FiraCode-Regular', 'Fira Code', monospace;font-size:20px;fill:rgb(58,47,90);">01001000 <tspan x="242.308px " y="700.149px ">0</tspan>1100101 <tspan x="350.615px " y="700.149px ">0</tspan>1101100 <tspan x="458.923px " y="700.149px ">0</tspan>1101100 <tspan x="567.231px " y="700.149px ">0</tspan>1101111 <tspan x="675.538px " y="700.149px ">0</tspan>0101100</text>
            <text x="134px" y="720.149px" style="font-family:'FiraCode-Regular', 'Fira Code', monospace;font-size:20px;fill:rgb(58,47,90);">00100000 <tspan x="242.308px " y="720.149px ">0</tspan>1010111 <tspan x="350.615px " y="720.149px ">0</tspan>1101111 <tspan x="458.923px " y="720.149px ">0</tspan>1110010 <tspan x="567.231px " y="720.149px ">0</tspan>1101100 <tspan x="675.538px " y="720.149px ">0</tspan>1100100</text>
            <text x="134px" y="740.149px" style="font-family:'FiraCode-Regular', 'Fira Code', monospace;font-size:20px;fill:rgb(58,47,90);">00100001</text>
        </g>
        <g transform="matrix(1,0,0,1,-131,93.6842)">
            <text x="134px" y="700.149px" style="font-family:'FiraCode-Regular', 'Fira Code', monospace;font-size:20px;fill:rgb(58,47,90);">01001000 <tspan x="242.308px " y="700.149px ">0</tspan>1100101 <tspan x="350.615px " y="700.149px ">0</tspan>1101100 <tspan x="458.923px " y="700.149px ">0</tspan>1101100 <tspan x="567.231px " y="700.149px ">0</tspan>1101111 <tspan x="675.538px " y="700.149px ">0</tspan>0101100</text>
            <text x="134px" y="720.149px" style="font-family:'FiraCode-Regular', 'Fira Code', monospace;font-size:20px;fill:rgb(58,47,90);">00100000 <tspan x="242.308px " y="720.149px ">0</tspan>1010111 <tspan x="350.615px " y="720.149px ">0</tspan>1101111 <tspan x="458.923px " y="720.149px ">0</tspan>1110010 <tspan x="567.231px " y="720.149px ">0</tspan>1101100 <tspan x="675.538px " y="720.149px ">0</tspan>1100100</text>
            <text x="134px" y="740.149px" style="font-family:'FiraCode-Regular', 'Fira Code', monospace;font-size:20px;fill:rgb(58,47,90);">00100001</text>
        </g>
        <g transform="matrix(1,0,0,1,-131,-147.368)">
            <text x="134px" y="700.149px" style="font-family:'FiraCode-Regular', 'Fira Code', monospace;font-size:20px;fill:rgb(58,47,90);">01001000 <tspan x="242.308px " y="700.149px ">0</tspan>1100101 <tspan x="350.615px " y="700.149px ">0</tspan>1101100 <tspan x="458.923px " y="700.149px ">0</tspan>1101100 <tspan x="567.231px " y="700.149px ">0</tspan>1101111 <tspan x="675.538px " y="700.149px ">0</tspan>0101100</text>
            <text x="134px" y="720.149px" style="font-family:'FiraCode-Regular', 'Fira Code', monospace;font-size:20px;fill:rgb(58,47,90);">00100000 <tspan x="242.308px " y="720.149px ">0</tspan>1010111 <tspan x="350.615px " y="720.149px ">0</tspan>1101111 <tspan x="458.923px " y="720.149px ">0</tspan>1110010 <tspan x="567.231px " y="720.149px ">0</tspan>1101100 <tspan x="675.538px " y="720.149px ">0</tspan>1100100</text>
            <text x="134px" y="740.149px" style="font-family:'FiraCode-Regular', 'Fira Code', monospace;font-size:20px;fill:rgb(58,47,90);">00100001</text>
        </g>
        <g transform="matrix(1,0,0,1,-131,-388.421)">
            <text x="134px" y="700.149px" style="font-family:'FiraCode-Regular', 'Fira Code', monospace;font-size:20px;fill:rgb(58,47,90);">01001000 <tspan x="242.308px " y="700.149px ">0</tspan>1100101 <tspan x="350.615px " y="700.149px ">0</tspan>1101100 <tspan x="458.923px " y="700.149px ">0</tspan>1101100 <tspan x="567.231px " y="700.149px ">0</tspan>1101111 <tspan x="675.538px " y="700.149px ">0</tspan>0101100</text>
            <text x="134px" y="720.149px" style="font-family:'FiraCode-Regular', 'Fira Code', monospace;font-size:20px;fill:rgb(58,47,90);">00100000 <tspan x="242.308px " y="720.149px ">0</tspan>1010111 <tspan x="350.615px " y="720.149px ">0</tspan>1101111 <tspan x="458.923px " y="720.149px ">0</tspan>1110010 <tspan x="567.231px " y="720.149px ">0</tspan>1101100 <tspan x="675.538px " y="720.149px ">0</tspan>1100100</text>
            <text x="134px" y="740.149px" style="font-family:'FiraCode-Regular', 'Fira Code', monospace;font-size:20px;fill:rgb(58,47,90);">00100001</text>
        </g>
        <g transform="matrix(1,0,0,1,-131,-629.474)">
            <text x="134px" y="700.149px" style="font-family:'FiraCode-Regular', 'Fira Code', monospace;font-size:20px;fill:rgb(58,47,90);">01001000 <tspan x="242.308px " y="700.149px ">0</tspan>1100101 <tspan x="350.615px " y="700.149px ">0</tspan>1101100 <tspan x="458.923px " y="700.149px ">0</tspan>1101100 <tspan x="567.231px " y="700.149px ">0</tspan>1101111 <tspan x="675.538px " y="700.149px ">0</tspan>0101100</text>
            <text x="134px" y="720.149px" style="font-family:'FiraCode-Regular', 'Fira Code', monospace;font-size:20px;fill:rgb(58,47,90);">00100000 <tspan x="242.308px " y="720.149px ">0</tspan>1010111 <tspan x="350.615px " y="720.149px ">0</tspan>1101111 <tspan x="458.923px " y="720.149px ">0</tspan>1110010 <tspan x="567.231px " y="720.149px ">0</tspan>1101100 <tspan x="675.538px " y="720.149px ">0</tspan>1100100</text>
            <text x="134px" y="740.149px" style="font-family:'FiraCode-Regular', 'Fira Code', monospace;font-size:20px;fill:rgb(58,47,90);">00100001</text>
        </g>
        <g transform="matrix(1,0,0,1,-131,33.4211)">
            <text x="134px" y="700.149px" style="font-family:'FiraCode-Regular', 'Fira Code', monospace;font-size:20px;fill:rgb(58,47,90);">01001000 <tspan x="242.308px " y="700.149px ">0</tspan>1100101 <tspan x="350.615px " y="700.149px ">0</tspan>1101100 <tspan x="458.923px " y="700.149px ">0</tspan>1101100 <tspan x="567.231px " y="700.149px ">0</tspan>1101111 <tspan x="675.538px " y="700.149px ">0</tspan>0101100</text>
            <text x="134px" y="720.149px" style="font-family:'FiraCode-Regular', 'Fira Code', monospace;font-size:20px;fill:rgb(58,47,90);">00100000 <tspan x="242.308px " y="720.149px ">0</tspan>1010111 <tspan x="350.615px " y="720.149px ">0</tspan>1101111 <tspan x="458.923px " y="720.149px ">0</tspan>1110010 <tspan x="567.231px " y="720.149px ">0</tspan>1101100 <tspan x="675.538px " y="720.149px ">0</tspan>1100100</text>
            <text x="134px" y="740.149px" style="font-family:'FiraCode-Regular', 'Fira Code', monospace;font-size:20px;fill:rgb(58,47,90);">00100001</text>
        </g>
        <g transform="matrix(1,0,0,1,-131,-207.632)">
            <text x="134px" y="700.149px" style="font-family:'FiraCode-Regular', 'Fira Code', monospace;font-size:20px;fill:rgb(58,47,90);">01001000 <tspan x="242.308px " y="700.149px ">0</tspan>1100101 <tspan x="350.615px " y="700.149px ">0</tspan>1101100 <tspan x="458.923px " y="700.149px ">0</tspan>1101100 <tspan x="567.231px " y="700.149px ">0</tspan>1101111 <tspan x="675.538px " y="700.149px ">0</tspan>0101100</text>
            <text x="134px" y="720.149px" style="font-family:'FiraCode-Regular', 'Fira Code', monospace;font-size:20px;fill:rgb(58,47,90);">00100000 <tspan x="242.308px " y="720.149px ">0</tspan>1010111 <tspan x="350.615px " y="720.149px ">0</tspan>1101111 <tspan x="458.923px " y="720.149px ">0</tspan>1110010 <tspan x="567.231px " y="720.149px ">0</tspan>1101100 <tspan x="675.538px " y="720.149px ">0</tspan>1100100</text>
            <text x="134px" y="740.149px" style="font-family:'FiraCode-Regular', 'Fira Code', monospace;font-size:20px;fill:rgb(58,47,90);">00100001</text>
        </g>
        <g transform="matrix(1,0,0,1,-131,-448.684)">
            <text x="134px" y="700.149px" style="font-family:'FiraCode-Regular', 'Fira Code', monospace;font-size:20px;fill:rgb(58,47,90);">01001000 <tspan x="242.308px " y="700.149px ">0</tspan>1100101 <tspan x="350.615px " y="700.149px ">0</tspan>1101100 <tspan x="458.923px " y="700.149px ">0</tspan>1101100 <tspan x="567.231px " y="700.149px ">0</tspan>1101111 <tspan x="675.538px " y="700.149px ">0</tspan>0101100</text>
            <text x="134px" y="720.149px" style="font-family:'FiraCode-Regular', 'Fira Code', monospace;font-size:20px;fill:rgb(58,47,90);">00100000 <tspan x="242.308px " y="720.149px ">0</tspan>1010111 <tspan x="350.615px " y="720.149px ">0</tspan>1101111 <tspan x="458.923px " y="720.149px ">0</tspan>1110010 <tspan x="567.231px " y="720.149px ">0</tspan>1101100 <tspan x="675.538px " y="720.149px ">0</tspan>1100100</text>
            <text x="134px" y="740.149px" style="font-family:'FiraCode-Regular', 'Fira Code', monospace;font-size:20px;fill:rgb(58,47,90);">00100001</text>
        </g>
        <g transform="matrix(1,0,0,1,-131,-689.737)">
            <text x="134px" y="700.149px" style="font-family:'FiraCode-Regular', 'Fira Code', monospace;font-size:20px;fill:rgb(58,47,90);">01001000 <tspan x="242.308px " y="700.149px ">0</tspan>1100101 <tspan x="350.615px " y="700.149px ">0</tspan>1101100 <tspan x="458.923px " y="700.149px ">0</tspan>1101100 <tspan x="567.231px " y="700.149px ">0</tspan>1101111 <tspan x="675.538px " y="700.149px ">0</tspan>0101100</text>
            <text x="134px" y="720.149px" style="font-family:'FiraCode-Regular', 'Fira Code', monospace;font-size:20px;fill:rgb(58,47,90);">00100000 <tspan x="242.308px " y="720.149px ">0</tspan>1010111 <tspan x="350.615px " y="720.149px ">0</tspan>1101111 <tspan x="458.923px " y="720.149px ">0</tspan>1110010 <tspan x="567.231px " y="720.149px ">0</tspan>1101100 <tspan x="675.538px " y="720.149px ">0</tspan>1100100</text>
            <text x="134px" y="740.149px" style="font-family:'FiraCode-Regular', 'Fira Code', monospace;font-size:20px;fill:rgb(58,47,90);">00100001</text>
        </g>
        <g transform="matrix(1,0,0,1,-131,-26.8421)">
            <text x="134px" y="700.149px" style="font-family:'FiraCode-Regular', 'Fira Code', monospace;font-size:20px;fill:rgb(58,47,90);">01001000 <tspan x="242.308px " y="700.149px ">0</tspan>1100101 <tspan x="350.615px " y="700.149px ">0</tspan>1101100 <tspan x="458.923px " y="700.149px ">0</tspan>1101100 <tspan x="567.231px " y="700.149px ">0</tspan>1101111 <tspan x="675.538px " y="700.149px ">0</tspan>0101100</text>
            <text x="134px" y="720.149px" style="font-family:'FiraCode-Regular', 'Fira Code', monospace;font-size:20px;fill:rgb(58,47,90);">00100000 <tspan x="242.308px " y="720.149px ">0</tspan>1010111 <tspan x="350.615px " y="720.149px ">0</tspan>1101111 <tspan x="458.923px " y="720.149px ">0</tspan>1110010 <tspan x="567.231px " y="720.149px ">0</tspan>1101100 <tspan x="675.538px " y="720.149px ">0</tspan>1100100</text>
            <text x="134px" y="740.149px" style="font-family:'FiraCode-Regular', 'Fira Code', monospace;font-size:20px;fill:rgb(58,47,90);">00100001</text>
        </g>
        <g transform="matrix(1,0,0,1,-131,-267.895)">
            <text x="134px" y="700.149px" style="font-family:'FiraCode-Regular', 'Fira Code', monospace;font-size:20px;fill:rgb(58,47,90);">01001000 <tspan x="242.308px " y="700.149px ">0</tspan>1100101 <tspan x="350.615px " y="700.149px ">0</tspan>1101100 <tspan x="458.923px " y="700.149px ">0</tspan>1101100 <tspan x="567.231px " y="700.149px ">0</tspan>1101111 <tspan x="675.538px " y="700.149px ">0</tspan>0101100</text>
            <text x="134px" y="720.149px" style="font-family:'FiraCode-Regular', 'Fira Code', monospace;font-size:20px;fill:rgb(58,47,90);">00100000 <tspan x="242.308px " y="720.149px ">0</tspan>1010111 <tspan x="350.615px " y="720.149px ">0</tspan>1101111 <tspan x="458.923px " y="720.149px ">0</tspan>1110010 <tspan x="567.231px " y="720.149px ">0</tspan>1101100 <tspan x="675.538px " y="720.149px ">0</tspan>1100100</text>
            <text x="134px" y="740.149px" style="font-family:'FiraCode-Regular', 'Fira Code', monospace;font-size:20px;fill:rgb(58,47,90);">00100001</text>
        </g>
        <g transform="matrix(1,0,0,1,-131,-508.947)">
            <text x="134px" y="700.149px" style="font-family:'FiraCode-Regular', 'Fira Code', monospace;font-size:20px;fill:rgb(58,47,90);">01001000 <tspan x="242.308px " y="700.149px ">0</tspan>1100101 <tspan x="350.615px " y="700.149px ">0</tspan>1101100 <tspan x="458.923px " y="700.149px ">0</tspan>1101100 <tspan x="567.231px " y="700.149px ">0</tspan>1101111 <tspan x="675.538px " y="700.149px ">0</tspan>0101100</text>
            <text x="134px" y="720.149px" style="font-family:'FiraCode-Regular', 'Fira Code', monospace;font-size:20px;fill:rgb(58,47,90);">00100000 <tspan x="242.308px " y="720.149px ">0</tspan>1010111 <tspan x="350.615px " y="720.149px ">0</tspan>1101111 <tspan x="458.923px " y="720.149px ">0</tspan>1110010 <tspan x="567.231px " y="720.149px ">0</tspan>1101100 <tspan x="675.538px " y="720.149px ">0</tspan>1100100</text>
            <text x="134px" y="740.149px" style="font-family:'FiraCode-Regular', 'Fira Code', monospace;font-size:20px;fill:rgb(58,47,90);">00100001</text>
        </g>
    </g>
</svg>
